<svg width="75" height="53" viewBox="0 0 75 53" fill="none" xmlns="http://www.w3.org/2000/svg">
<path d="M15.9058 14.3301C15.8651 14.4684 15.7878 14.5742 15.6738 14.6475C15.5599 14.7126 15.4338 14.7451 15.2954 14.7451C15.1082 14.7451 14.9536 14.6759 14.8315 14.5376C14.7095 14.3993 14.6484 14.2609 14.6484 14.1226C14.6484 14.0575 14.6647 13.9924 14.6973 13.9272L15.4785 11.6445C15.2751 11.319 15.0269 11.0098 14.7339 10.7168C14.4491 10.4157 14.1357 10.1512 13.7939 9.92334C13.4521 9.69548 13.09 9.51644 12.7075 9.38623C12.325 9.24788 11.9385 9.17871 11.5479 9.17871C10.8073 9.17871 10.144 9.29264 9.55811 9.52051C8.98031 9.74837 8.47168 10.0576 8.03223 10.4482C7.60091 10.8389 7.23063 11.2987 6.92139 11.8276C6.61214 12.3485 6.35986 12.9059 6.16455 13.5C5.97738 14.0941 5.83903 14.7085 5.74951 15.3433C5.66813 15.9699 5.62744 16.5884 5.62744 17.1987C5.62744 17.7277 5.65592 18.2933 5.71289 18.8955C5.76986 19.4896 5.86751 20.0877 6.00586 20.6899C6.14421 21.284 6.32731 21.8577 6.55518 22.4111C6.78304 22.9564 7.0638 23.4406 7.39746 23.8638C7.73926 24.2869 8.13802 24.6247 8.59375 24.877C9.04948 25.1292 9.57845 25.2554 10.1807 25.2554C10.8887 25.2554 11.5601 25.1536 12.1948 24.9502C12.8377 24.7467 13.4196 24.4578 13.9404 24.0835C14.4694 23.701 14.9292 23.2453 15.3198 22.7163C15.7186 22.1873 16.0278 21.5973 16.2476 20.9463C16.2882 20.7998 16.3656 20.6818 16.4795 20.5923C16.5934 20.4946 16.7236 20.4458 16.8701 20.4458C17.0492 20.4458 17.1997 20.515 17.3218 20.6533C17.4438 20.7917 17.5049 20.9422 17.5049 21.105V21.2515C17.4967 21.2677 17.4683 21.3491 17.4194 21.4956C17.3787 21.6421 17.3055 21.8333 17.1997 22.0693C17.1021 22.2972 16.9678 22.5617 16.7969 22.8628C16.6341 23.1558 16.4266 23.4609 16.1743 23.7783C15.8 24.2422 15.3809 24.645 14.917 24.9868C14.4531 25.3286 13.9608 25.6134 13.4399 25.8413C12.9272 26.0692 12.3942 26.2401 11.8408 26.354C11.2874 26.4679 10.734 26.5249 10.1807 26.5249C8.78906 26.5005 7.53988 26.2767 6.43311 25.8535C5.33447 25.4222 4.3986 24.8241 3.62549 24.0591C2.86051 23.286 2.27051 22.3582 1.85547 21.2759C1.44857 20.1935 1.24512 18.985 1.24512 17.6504C1.24512 16.4134 1.37533 15.3107 1.63574 14.3423C1.89616 13.3739 2.25016 12.5275 2.69775 11.8032C3.15348 11.0708 3.68652 10.4523 4.29688 9.94775C4.90723 9.43506 5.5542 9.02002 6.23779 8.70264C6.92952 8.38525 7.64567 8.15739 8.38623 8.01904C9.12679 7.87256 9.85514 7.79932 10.5713 7.79932C11.2874 7.79932 11.9303 7.87663 12.5 8.03125C13.0697 8.17773 13.5783 8.36898 14.0259 8.60498C14.4735 8.84098 14.856 9.1014 15.1733 9.38623C15.4989 9.66292 15.7674 9.92741 15.979 10.1797L16.6504 8.25098C16.6992 8.11263 16.7806 8.00277 16.8945 7.92139C17.0085 7.84001 17.1265 7.79932 17.2485 7.79932C17.4276 7.79932 17.5781 7.86849 17.7002 8.00684C17.8304 8.13704 17.8955 8.28353 17.8955 8.44629C17.8955 8.51953 17.8792 8.5887 17.8467 8.65381L15.9058 14.3301ZM35.2783 13.9028C35.2783 14.0493 35.2295 14.1836 35.1318 14.3057C35.0423 14.4277 34.9162 14.501 34.7534 14.5254C34.4686 14.5905 34.1838 14.6434 33.8989 14.6841C33.6141 14.7166 33.3333 14.7533 33.0566 14.7939L32.8613 24.9014C33.1462 24.9014 33.4351 24.9095 33.728 24.9258C34.0291 24.9339 34.3221 24.9583 34.6069 24.999C34.786 25.0153 34.9243 25.0885 35.022 25.2188C35.1278 25.3408 35.1807 25.4751 35.1807 25.6216C35.1807 25.825 35.1115 25.9837 34.9731 26.0977C34.8429 26.2197 34.7046 26.2808 34.5581 26.2808H34.4849C34.1512 26.2401 33.8216 26.2116 33.4961 26.1953C33.1787 26.179 32.8654 26.1709 32.5562 26.1709C31.9946 26.1709 31.4372 26.1994 30.8838 26.2563C30.3385 26.3133 29.7974 26.4028 29.2603 26.5249H29.126C28.9551 26.5249 28.8045 26.4598 28.6743 26.3296C28.5441 26.2075 28.479 26.0651 28.479 25.9023V25.8779L28.5522 23.644C28.0396 24.5799 27.4414 25.2961 26.7578 25.7925C26.0742 26.2808 25.3133 26.5249 24.4751 26.5249C23.9461 26.5249 23.4782 26.4395 23.0713 26.2686C22.6725 26.0977 22.3185 25.8698 22.0093 25.585C21.7082 25.292 21.4518 24.9583 21.2402 24.584C21.0368 24.2015 20.87 23.8027 20.7397 23.3877C20.6177 22.9645 20.5282 22.5373 20.4712 22.106C20.4142 21.6746 20.3857 21.2637 20.3857 20.873C20.3857 19.807 20.4875 18.7612 20.6909 17.7358C20.9025 16.7104 21.2158 15.742 21.6309 14.8306L19.4336 14.7695C19.2546 14.7533 19.104 14.6882 18.9819 14.5742C18.868 14.4521 18.811 14.3016 18.811 14.1226C18.811 13.9598 18.8721 13.8174 18.9941 13.6953C19.1162 13.5651 19.2708 13.5 19.458 13.5L22.6807 13.5732C22.8597 13.5977 23.0062 13.6709 23.1201 13.793C23.2422 13.9069 23.3032 14.0493 23.3032 14.2202C23.3032 14.2853 23.291 14.3464 23.2666 14.4033C23.2503 14.4521 23.23 14.501 23.2056 14.5498C23.0509 14.7044 22.9045 14.9364 22.7661 15.2456C22.6278 15.5549 22.5016 15.9089 22.3877 16.3076C22.2738 16.6982 22.172 17.1174 22.0825 17.5649C21.993 18.0044 21.9157 18.4357 21.8506 18.8589C21.7855 19.2739 21.7367 19.6605 21.7041 20.0186C21.6715 20.3766 21.6553 20.6696 21.6553 20.8975C21.6553 21.402 21.696 21.9147 21.7773 22.4355C21.8669 22.9482 22.0174 23.4162 22.229 23.8394C22.4406 24.2544 22.7254 24.5962 23.0835 24.8647C23.4416 25.1252 23.8973 25.2554 24.4507 25.2554C24.9471 25.2554 25.4191 25.113 25.8667 24.8281C26.3143 24.5352 26.7171 24.1201 27.0752 23.583C27.4414 23.0459 27.7588 22.3908 28.0273 21.6177C28.304 20.8446 28.5238 19.9738 28.6865 19.0054L28.833 14.0981C28.833 13.9191 28.9022 13.7767 29.0405 13.6709C29.1789 13.557 29.3254 13.5 29.48 13.5H29.5532C29.8299 13.5407 30.1107 13.5692 30.3955 13.5854C30.6803 13.5936 30.9774 13.5977 31.2866 13.5977C31.783 13.5977 32.2998 13.5732 32.8369 13.5244C33.3822 13.4756 33.9478 13.3942 34.5337 13.2803C34.55 13.2803 34.5662 13.2762 34.5825 13.2681C34.5988 13.2599 34.6151 13.2559 34.6313 13.2559C34.8185 13.2559 34.9731 13.325 35.0952 13.4634C35.2173 13.5936 35.2783 13.7401 35.2783 13.9028ZM47.8149 19.9453C47.5138 19.9453 47.229 19.8883 46.9604 19.7744C46.7 19.6605 46.4722 19.5059 46.2769 19.3105C46.0815 19.1152 45.9269 18.8874 45.813 18.627C45.6991 18.3584 45.6421 18.0736 45.6421 17.7725C45.6421 17.4714 45.6991 17.1906 45.813 16.9302C45.9269 16.6616 46.0815 16.4297 46.2769 16.2344C46.4722 16.0309 46.7 15.8722 46.9604 15.7583C47.229 15.6362 47.5138 15.5752 47.8149 15.5752C47.8556 15.5752 47.8923 15.5793 47.9248 15.5874C47.9655 15.5955 48.0062 15.5996 48.0469 15.5996C47.8353 15.4368 47.5871 15.3148 47.3022 15.2334C47.0256 15.1439 46.7041 15.0991 46.3379 15.0991C45.874 15.0991 45.4712 15.1968 45.1294 15.3921C44.7876 15.5793 44.4946 15.8193 44.2505 16.1123C44.0145 16.3971 43.8232 16.7104 43.6768 17.0522C43.5303 17.3859 43.4123 17.7033 43.3228 18.0044C43.2414 18.2974 43.1844 18.5496 43.1519 18.7612C43.1274 18.9728 43.1152 19.0949 43.1152 19.1274L43.0908 24.5474C43.3757 24.5718 43.6605 24.6084 43.9453 24.6572C44.2383 24.7061 44.5353 24.7549 44.8364 24.8037C44.991 24.8444 45.1172 24.9258 45.2148 25.0479C45.3125 25.1618 45.3613 25.2961 45.3613 25.4507C45.3613 25.6297 45.2922 25.7803 45.1538 25.9023C45.0155 26.0163 44.869 26.0732 44.7144 26.0732H44.5923C43.9331 25.9512 43.3065 25.8576 42.7124 25.7925C42.1183 25.7274 41.5283 25.6948 40.9424 25.6948C40.3564 25.6948 39.7705 25.7274 39.1846 25.7925C38.5986 25.8576 37.9761 25.9512 37.3169 26.0732H37.1948C37.0076 26.0732 36.8571 26.0122 36.7432 25.8901C36.6292 25.7599 36.5723 25.6134 36.5723 25.4507C36.5723 25.2961 36.617 25.1618 36.7065 25.0479C36.7961 24.9258 36.9181 24.8444 37.0728 24.8037C37.3576 24.7549 37.6424 24.7061 37.9272 24.6572C38.2121 24.6084 38.4928 24.5718 38.7695 24.5474V15.4531C38.2568 15.4287 37.8255 15.3962 37.4756 15.3555C37.1257 15.3148 36.9303 15.2863 36.8896 15.27C36.7269 15.2537 36.5926 15.1886 36.4868 15.0747C36.3892 14.9526 36.3403 14.8102 36.3403 14.6475C36.3403 14.444 36.4095 14.2853 36.5479 14.1714C36.6943 14.0575 36.8408 14.0005 36.9873 14.0005H37.0728C37.0809 14.0086 37.1745 14.0249 37.3535 14.0493C37.5326 14.0656 37.7645 14.0859 38.0493 14.1104C38.3341 14.1348 38.6597 14.1551 39.0259 14.1714C39.4002 14.1877 39.7786 14.1958 40.1611 14.1958C40.5518 14.1958 40.9342 14.1836 41.3086 14.1592C41.6829 14.1348 42.0288 14.09 42.3462 14.0249C42.3625 14.0086 42.4032 14.0005 42.4683 14.0005C42.6554 14.0005 42.8101 14.0697 42.9321 14.208C43.0542 14.3382 43.1152 14.4847 43.1152 14.6475V15.5264C43.4652 15.0381 43.9046 14.6353 44.4336 14.3179C44.9707 13.9924 45.6055 13.8296 46.3379 13.8296C46.8913 13.8459 47.3958 13.9435 47.8516 14.1226C48.3073 14.2935 48.6979 14.5335 49.0234 14.8428C49.3571 15.1439 49.6134 15.5101 49.7925 15.9414C49.9797 16.3646 50.0732 16.8407 50.0732 17.3696C50.0732 17.7033 50.0203 18.0247 49.9146 18.334C49.8088 18.6432 49.6582 18.9199 49.4629 19.1641C49.2676 19.4001 49.0275 19.5913 48.7427 19.7378C48.466 19.8761 48.1567 19.9453 47.8149 19.9453ZM58.4106 26.1709H58.2886C57.9631 26.1139 57.666 26.0651 57.3975 26.0244C57.1289 25.9837 56.8726 25.9552 56.6284 25.939C56.3843 25.9146 56.1361 25.8983 55.8838 25.8901C55.6396 25.882 55.3752 25.8779 55.0903 25.8779C54.5125 25.8779 53.951 25.9023 53.4058 25.9512C52.8605 25.9919 52.2624 26.0732 51.6113 26.1953H51.4893C51.2858 26.1953 51.1312 26.1302 51.0254 26C50.9196 25.8779 50.8667 25.7274 50.8667 25.5483C50.8667 25.4019 50.9115 25.2716 51.001 25.1577C51.0905 25.0438 51.2126 24.9665 51.3672 24.9258C51.6683 24.877 51.9409 24.8403 52.1851 24.8159C52.4292 24.7834 52.6896 24.7549 52.9663 24.7305V9.82568C52.4536 9.78499 52.0833 9.74837 51.8555 9.71582C51.6357 9.67513 51.5055 9.65479 51.4648 9.65479C51.3021 9.63037 51.1678 9.55713 51.062 9.43506C50.9644 9.31299 50.9155 9.17464 50.9155 9.02002C50.9155 8.80843 50.9888 8.64974 51.1353 8.54395C51.2817 8.43001 51.4242 8.37305 51.5625 8.37305H51.6357C51.6439 8.37305 51.7171 8.38525 51.8555 8.40967C51.9938 8.42594 52.181 8.45036 52.417 8.48291C52.6611 8.50732 52.946 8.53174 53.2715 8.55615C53.6051 8.57243 53.9673 8.58057 54.3579 8.58057C54.7485 8.58057 55.131 8.56836 55.5054 8.54395C55.8797 8.51139 56.2215 8.46257 56.5308 8.39746C56.5552 8.38118 56.5999 8.37305 56.665 8.37305C56.8522 8.37305 57.0068 8.44222 57.1289 8.58057C57.251 8.71077 57.312 8.85726 57.312 9.02002L57.2876 24.7305C57.4259 24.7467 57.5399 24.763 57.6294 24.7793C57.7271 24.7874 57.8166 24.7996 57.8979 24.8159C57.9875 24.8241 58.077 24.8363 58.1665 24.8525C58.2642 24.8607 58.3862 24.877 58.5327 24.9014C58.6873 24.9421 58.8135 25.0194 58.9111 25.1333C59.0088 25.2472 59.0576 25.3774 59.0576 25.5239C59.0576 25.7111 58.9884 25.8657 58.8501 25.9878C58.7199 26.1099 58.5734 26.1709 58.4106 26.1709ZM74.7192 13.6953C74.7192 13.8581 74.6623 14.0005 74.5483 14.1226C74.4425 14.2446 74.3083 14.3138 74.1455 14.3301C73.9909 14.3545 73.8363 14.3748 73.6816 14.3911C73.5352 14.3993 73.3805 14.4115 73.2178 14.4277C73.1608 14.6556 73.0794 14.9771 72.9736 15.3921C72.876 15.799 72.758 16.2669 72.6196 16.7959C72.4813 17.3249 72.3307 17.8986 72.168 18.5171C72.0133 19.1356 71.8506 19.7663 71.6797 20.4092C71.5088 21.0521 71.3338 21.6909 71.1548 22.3257C70.9757 22.9604 70.8008 23.5627 70.6299 24.1323C70.4671 24.6938 70.3084 25.2065 70.1538 25.6704C70.0073 26.1261 69.873 26.5046 69.751 26.8057C69.4173 27.6032 69.0186 28.3804 68.5547 29.1372C68.099 29.9022 67.57 30.5817 66.9678 31.1758C66.3737 31.7699 65.7064 32.2459 64.9658 32.604C64.2253 32.9702 63.4115 33.1533 62.5244 33.1533C61.971 33.1533 61.438 33.076 60.9253 32.9214C60.4126 32.7749 59.9609 32.5511 59.5703 32.25C59.1797 31.9489 58.8664 31.5786 58.6304 31.1392C58.3944 30.7078 58.2764 30.2033 58.2764 29.6255C58.2764 29.2593 58.3293 28.8931 58.4351 28.5269C58.5327 28.1688 58.6833 27.8473 58.8867 27.5625C59.082 27.2858 59.3262 27.0579 59.6191 26.8789C59.9121 26.708 60.2539 26.6226 60.6445 26.6226C60.9456 26.6226 61.2264 26.6795 61.4868 26.7935C61.7554 26.9074 61.9873 27.062 62.1826 27.2573C62.3779 27.4526 62.5326 27.6805 62.6465 27.9409C62.7604 28.2095 62.8174 28.4943 62.8174 28.7954C62.8174 29.0965 62.7604 29.3773 62.6465 29.6377C62.5326 29.9062 62.3779 30.1382 62.1826 30.3335C61.9873 30.5369 61.7554 30.6956 61.4868 30.8096C61.2264 30.9235 60.9456 30.9805 60.6445 30.9805C60.5062 30.9805 60.376 30.9683 60.2539 30.9438C60.1318 30.9194 60.0138 30.8869 59.8999 30.8462C60.0871 31.0822 60.3027 31.2694 60.5469 31.4077C60.791 31.5542 61.0555 31.6274 61.3403 31.6274C61.6984 31.6274 62.0402 31.5176 62.3657 31.2979C62.6912 31.0863 62.9964 30.8096 63.2812 30.4678C63.5742 30.126 63.8428 29.7435 64.0869 29.3203C64.3311 28.8971 64.5508 28.474 64.7461 28.0508C64.9495 27.6276 65.1245 27.2288 65.271 26.8545C65.4175 26.4801 65.5355 26.1709 65.625 25.9268C65.6901 25.7477 65.7511 25.5605 65.8081 25.3652C65.8732 25.1618 65.9424 24.9502 66.0156 24.7305C65.1204 23.5098 64.4043 22.3704 63.8672 21.3125C63.3301 20.2546 62.911 19.2983 62.6099 18.4438C62.3169 17.5894 62.1175 16.8488 62.0117 16.2222C61.9141 15.5874 61.8571 15.0869 61.8408 14.7207C61.5316 14.7207 61.2183 14.7166 60.9009 14.7085C60.5916 14.6922 60.2824 14.6637 59.9731 14.623C59.8104 14.6068 59.672 14.5417 59.5581 14.4277C59.4523 14.3057 59.3994 14.1632 59.3994 14.0005C59.3994 13.8215 59.4645 13.6709 59.5947 13.5488C59.7331 13.4186 59.8836 13.3535 60.0464 13.3535H60.1196C60.4045 13.3942 60.6934 13.4227 60.9863 13.439C61.2874 13.4471 61.5926 13.4512 61.9019 13.4512C62.3739 13.4512 62.8499 13.4349 63.3301 13.4023C63.8184 13.3617 64.3148 13.3006 64.8193 13.2192C64.8519 13.203 64.8844 13.1948 64.917 13.1948C65.1042 13.1948 65.2588 13.264 65.3809 13.4023C65.5111 13.5407 65.5762 13.6912 65.5762 13.854C65.5762 14.0005 65.5233 14.1348 65.4175 14.2568C65.3198 14.3789 65.1896 14.4521 65.0269 14.4766C64.6932 14.5254 64.3677 14.5701 64.0503 14.6108C63.741 14.6434 63.4318 14.6719 63.1226 14.6963C63.1307 14.9893 63.1755 15.4002 63.2568 15.9292C63.3464 16.4582 63.5091 17.0848 63.7451 17.8091C63.9893 18.5334 64.327 19.3472 64.7583 20.2505C65.1978 21.1538 65.7756 22.1304 66.4917 23.1802C66.7196 22.3989 66.9474 21.5811 67.1753 20.7266C67.4113 19.8639 67.631 19.0339 67.8345 18.2363C68.0461 17.4388 68.2332 16.7064 68.396 16.0391C68.5669 15.3717 68.7012 14.8346 68.7988 14.4277C68.6361 14.4115 68.4652 14.3993 68.2861 14.3911C68.1152 14.3748 67.9443 14.3545 67.7734 14.3301C67.6107 14.3138 67.4723 14.2446 67.3584 14.1226C67.2526 14.0005 67.1997 13.8581 67.1997 13.6953C67.1997 13.5 67.2689 13.3454 67.4072 13.2314C67.5456 13.1094 67.6921 13.0483 67.8467 13.0483H67.9199C68.4245 13.1134 68.925 13.1582 69.4214 13.1826C69.9259 13.207 70.4346 13.2192 70.9473 13.2192C71.4518 13.2192 71.9564 13.207 72.4609 13.1826C72.9736 13.1582 73.4863 13.1134 73.999 13.0483H74.0723C74.2594 13.0483 74.4141 13.1175 74.5361 13.2559C74.6582 13.3861 74.7192 13.5326 74.7192 13.6953Z" fill="black"/>
<path d="M12.3809 34.1582C10.1413 35.265 9.02148 37.319 9.02148 40.3203C9.02148 42.3255 9.60417 43.8457 10.7695 44.8809C11.1536 45.2259 11.6094 45.5384 12.1367 45.8184C11.0299 44.4772 10.4766 42.5241 10.4766 39.959C10.4766 37.4134 11.1113 35.4798 12.3809 34.1582ZM15.457 32.4395C17.2734 32.4395 18.7155 33.0742 19.7832 34.3438L20.3203 32.8008C20.4049 32.5599 20.5417 32.4395 20.7305 32.4395C20.9193 32.4395 21.0625 32.4948 21.1602 32.6055C21.2643 32.7096 21.3164 32.8105 21.3164 32.9082C21.3164 32.9993 21.3034 33.071 21.2773 33.123L19.7246 37.6641C19.6595 37.8854 19.5228 37.9961 19.3145 37.9961C19.1126 37.9961 18.9629 37.9408 18.8652 37.8301C18.7676 37.7194 18.7188 37.625 18.7188 37.5469C18.7188 37.4622 18.7318 37.3939 18.7578 37.3418L19.3828 35.5156C18.8294 34.6302 18.0905 34.0247 17.166 33.6992C16.86 33.5951 16.4792 33.543 16.0234 33.543C15.5742 33.543 15.1152 33.6341 14.6465 33.8164C14.1842 33.9987 13.7773 34.2461 13.4258 34.5586C13.0807 34.8711 12.7845 35.2389 12.5371 35.6621C12.2897 36.0788 12.0911 36.5247 11.9414 37C11.6484 37.8984 11.502 38.8848 11.502 39.959C11.502 41.541 11.7493 42.931 12.2441 44.1289C12.6283 45.0534 13.1719 45.7109 13.875 46.1016C14.2396 46.3034 14.6823 46.4043 15.2031 46.4043C15.7305 46.4043 16.248 46.3229 16.7559 46.1602C17.2702 45.9974 17.7357 45.763 18.1523 45.457C19.0312 44.8255 19.6465 43.9922 19.998 42.957C20.0697 42.6901 20.2064 42.5566 20.4082 42.5566C20.61 42.5566 20.7598 42.612 20.8574 42.7227C20.9551 42.8333 21.0039 42.9538 21.0039 43.084V43.2012C20.9974 43.2142 20.9746 43.2793 20.9355 43.3965C20.903 43.5137 20.8477 43.6667 20.7695 43.8555C20.151 45.2552 19.1484 46.2611 17.7617 46.873C16.9284 47.2376 16.0039 47.4134 14.9883 47.4004C13.9792 47.3939 13.0319 47.2214 12.1465 46.8828C11.2676 46.5378 10.5221 46.056 9.91016 45.4375C8.63411 44.168 7.99609 42.4622 7.99609 40.3203C7.99609 37.5664 8.8099 35.5091 10.4375 34.1484C11.8112 33.0091 13.4844 32.4395 15.457 32.4395ZM32.2148 38.123H31.8242C31.6289 38.123 31.3815 38.11 31.082 38.084L30.8281 46.2969C31.3099 46.2188 31.7884 46.1667 32.2637 46.1406L32.4199 38.1035C32.3483 38.1165 32.2799 38.123 32.2148 38.123ZM30.6426 37C30.9941 37.0521 31.5768 37.0781 32.3906 37.0781C33.2044 37.0781 33.9759 36.987 34.7051 36.8047C34.8548 36.8047 34.9785 36.86 35.0762 36.9707C35.1738 37.0749 35.2227 37.1888 35.2227 37.3125C35.2227 37.4362 35.1836 37.5469 35.1055 37.6445C35.0339 37.7422 34.9069 37.8105 34.7246 37.8496C34.5488 37.8822 34.347 37.9147 34.1191 37.9473C33.8913 37.9733 33.6667 38.0026 33.4453 38.0352L33.2891 46.1211C33.8555 46.1211 34.2656 46.1374 34.5195 46.1699C34.9362 46.222 35.1445 46.3978 35.1445 46.6973C35.1445 46.86 35.0892 46.987 34.9785 47.0781C34.8743 47.1758 34.7637 47.2246 34.6465 47.2246H34.5879C33.1491 47.0488 31.7559 47.1139 30.4082 47.4199H30.3008C30.1641 47.4199 30.0436 47.3678 29.9395 47.2637C29.8353 47.166 29.7832 47.0521 29.7832 46.9219V46.9023L29.8418 45.1152C29.002 46.6517 27.9147 47.4199 26.5801 47.4199C25.4277 47.4199 24.5651 46.9023 23.9922 45.8672C23.5365 45.0273 23.3086 44.0378 23.3086 42.8984C23.3086 41.1341 23.6406 39.5228 24.3047 38.0645L22.5469 38.0156C22.4036 38.0026 22.2832 37.9505 22.1855 37.8594C22.0944 37.7617 22.0488 37.6445 22.0488 37.5078C22.0488 37.3711 22.0977 37.2539 22.1953 37.1562C22.293 37.0521 22.4167 37 22.5664 37L25.1445 37.0586C25.2878 37.0781 25.4049 37.1367 25.4961 37.2344C25.5938 37.3255 25.6426 37.4167 25.6426 37.5078C25.6426 37.625 25.6165 37.7357 25.5645 37.8398C25.1283 38.276 24.7669 39.4219 24.4805 41.2773C24.3763 41.9544 24.3242 42.498 24.3242 42.9082C24.3242 43.3184 24.3568 43.7318 24.4219 44.1484C24.4935 44.5586 24.6139 44.9297 24.7832 45.2617C25.1673 46.0234 25.7598 46.4043 26.5605 46.4043C27.3613 46.4043 28.0612 45.9583 28.6602 45.0664C29.2591 44.1875 29.6888 42.9668 29.9492 41.4043L30.0664 37.4785C30.0664 37.3353 30.1217 37.2214 30.2324 37.1367C30.3431 37.0456 30.4603 37 30.584 37H30.6426ZM40.457 38.5234C40.2096 38.5625 39.7604 38.582 39.1094 38.582H39.0312V45.7598C39.1549 45.7467 39.2754 45.7402 39.3926 45.7402C39.3926 45.7402 39.7474 45.7402 40.457 45.7402V38.5234ZM45.916 40.6914C45.9551 40.6068 45.9746 40.4896 45.9746 40.3398C45.9746 40.1901 45.903 40.0469 45.7598 39.9102C45.623 39.7669 45.4538 39.6953 45.252 39.6953C45.0501 39.6953 44.8776 39.7669 44.7344 39.9102C44.5977 40.0469 44.5293 40.1901 44.5293 40.3398C44.5293 40.4896 44.5488 40.6068 44.5879 40.6914C44.627 40.776 44.679 40.8542 44.7441 40.9258C44.8809 41.069 45.0501 41.1406 45.252 41.1406C45.5579 41.1406 45.7793 40.9909 45.916 40.6914ZM41.4922 38.6211C42.1432 37.7161 43.0026 37.2637 44.0703 37.2637C44.9557 37.2897 45.6719 37.5599 46.2188 38.0742C46.7786 38.5885 47.0586 39.2624 47.0586 40.0957C47.0586 40.6491 46.8958 41.1276 46.5703 41.5312C46.2318 41.9479 45.7923 42.1562 45.252 42.1562C44.7702 42.1562 44.36 41.987 44.0215 41.6484C43.6829 41.3099 43.5137 40.8997 43.5137 40.418C43.5137 39.9427 43.6829 39.5326 44.0215 39.1875C44.36 38.8359 44.7702 38.6602 45.252 38.6602C45.2845 38.6602 45.3138 38.6634 45.3398 38.6699C45.3724 38.6764 45.4049 38.6797 45.4375 38.6797C45.0924 38.4128 44.6855 38.2793 44.2168 38.2793C43.748 38.2793 43.377 38.3574 43.1035 38.5137C42.8301 38.6634 42.5957 38.8555 42.4004 39.0898C42.2116 39.3177 42.0586 39.5684 41.9414 39.8418C41.8242 40.1087 41.7331 40.3594 41.668 40.5938C41.5508 40.9909 41.4922 41.2936 41.4922 41.502L41.4727 45.8379C41.7005 45.8574 41.9284 45.8867 42.1562 45.9258C42.3906 45.9648 42.599 46.0039 42.7812 46.043C43.1198 46.1081 43.2891 46.2806 43.2891 46.5605C43.2891 46.7038 43.2337 46.8242 43.123 46.9219C43.0124 47.013 42.8952 47.0586 42.7715 47.0586H42.6738C41.5866 46.8568 40.6133 46.7559 39.7539 46.7559C38.9076 46.7559 37.9408 46.8568 36.8535 47.0586H36.7559C36.6061 47.0586 36.4857 47.0098 36.3945 46.9121C36.3034 46.8079 36.2578 46.694 36.2578 46.5703C36.2578 46.2904 36.3913 46.1146 36.6582 46.043C36.8861 46.0039 37.1139 45.9648 37.3418 45.9258C37.5697 45.8867 37.7943 45.8574 38.0156 45.8379V38.5625C37.1562 38.5234 36.6549 38.4746 36.5117 38.416C36.3815 38.403 36.2741 38.3509 36.1895 38.2598C36.1113 38.1621 36.0723 38.0417 36.0723 37.8984C36.0723 37.7487 36.1276 37.6283 36.2383 37.5371C36.3555 37.446 36.4727 37.4004 36.5898 37.4004H36.6582C36.7038 37.446 37.0488 37.485 37.6934 37.5176C38.3444 37.5436 38.8229 37.5566 39.1289 37.5566C39.8516 37.5566 40.3268 37.5306 40.5547 37.4785C40.7826 37.4264 40.9453 37.4004 41.043 37.4004C41.1471 37.4004 41.248 37.4557 41.3457 37.5664C41.4434 37.6706 41.4922 37.7878 41.4922 37.918V38.6211ZM51.8047 34.0215C51.3815 34.0605 50.9355 34.0801 50.4668 34.0801H50.3887V45.877H51.8047V34.0215ZM49.373 34.0605L48.1719 33.9238C48.0417 33.9043 47.9342 33.8457 47.8496 33.748C47.7715 33.6504 47.7324 33.5299 47.7324 33.3867C47.7324 33.237 47.791 33.1198 47.9082 33.0352C48.0254 32.944 48.1393 32.8984 48.25 32.8984H48.3086C48.3151 32.8984 48.3737 32.9082 48.4844 32.9277C48.5951 32.9408 48.7448 32.957 48.9336 32.9766C49.4023 33.0352 49.9199 33.0645 50.4863 33.0645C51.1829 33.0645 51.6517 33.0384 51.8926 32.9863C52.1335 32.9277 52.3027 32.8984 52.4004 32.8984C52.5046 32.8984 52.6055 32.9538 52.7031 33.0645C52.8008 33.1686 52.8496 33.2858 52.8496 33.416L52.8301 45.9844C53.0124 46.0039 53.1556 46.0234 53.2598 46.043C53.3704 46.056 53.4616 46.069 53.5332 46.082C53.6113 46.0885 53.709 46.1048 53.8262 46.1309C53.9499 46.1569 54.0508 46.2155 54.1289 46.3066C54.207 46.3978 54.2461 46.5117 54.2461 46.6484C54.2461 46.7786 54.1908 46.8926 54.0801 46.9902C53.9759 47.0879 53.8587 47.1367 53.7285 47.1367H53.6309C51.8275 46.8177 50.0469 46.8242 48.2891 47.1562H48.1914C48.0286 47.1562 47.9049 47.1042 47.8203 47C47.7357 46.9023 47.6934 46.7884 47.6934 46.6582C47.6934 46.3848 47.8268 46.2122 48.0938 46.1406C48.4844 46.0755 48.9108 46.0234 49.373 45.9844V34.0605ZM64.1582 44.8418C64.2493 44.6009 64.2949 44.3698 64.2949 44.1484C64.2949 43.9271 64.2396 43.7155 64.1289 43.5137C64.0247 43.3118 63.8848 43.1393 63.709 42.9961C63.5332 42.8464 63.3314 42.7227 63.1035 42.625C62.8757 42.5208 62.6413 42.4329 62.4004 42.3613C62.1595 42.2897 61.9219 42.2311 61.6875 42.1855C61.4531 42.1335 61.222 42.0814 60.9941 42.0293C60.7728 41.9772 60.5189 41.9219 60.2324 41.8633C59.9525 41.8047 59.6693 41.7396 59.3828 41.668C59.1029 41.5898 58.8294 41.4954 58.5625 41.3848C58.3021 41.2741 58.0645 41.1406 57.8496 40.9844C57.3809 40.6523 57.0911 40.2161 56.9805 39.6758C56.8177 40.0273 56.7363 40.3757 56.7363 40.7207C56.7363 41.0658 56.7949 41.3555 56.9121 41.5898C57.0358 41.8242 57.1953 42.0293 57.3906 42.2051C57.5924 42.3809 57.8203 42.5306 58.0742 42.6543C58.3281 42.7715 58.5918 42.8724 58.8652 42.957C59.347 43.0938 59.7669 43.1816 60.125 43.2207C60.4896 43.2598 60.7891 43.2988 61.0234 43.3379C61.2643 43.3704 61.515 43.416 61.7754 43.4746C62.0358 43.5332 62.2962 43.6048 62.5566 43.6895C62.8171 43.7676 63.0579 43.862 63.2793 43.9727C63.7676 44.2201 64.0605 44.5098 64.1582 44.8418ZM63.0352 39.0996C62.1953 38.4355 61.1211 38.1035 59.8125 38.1035C59.0247 38.1035 58.4648 38.3184 58.1328 38.748C58.0156 38.9043 57.957 39.0898 57.957 39.3047C57.957 39.5195 58.0221 39.7051 58.1523 39.8613C58.2826 40.0111 58.4486 40.1445 58.6504 40.2617C58.8522 40.3789 59.0768 40.4798 59.3242 40.5645C59.5781 40.6491 59.8255 40.7207 60.0664 40.7793C60.3138 40.8379 60.5417 40.8867 60.75 40.9258C60.9648 40.9648 61.2155 41.0137 61.502 41.0723C61.7949 41.1309 62.179 41.235 62.6543 41.3848C63.1361 41.528 63.5755 41.7201 63.9727 41.9609C64.8711 42.5208 65.3203 43.2728 65.3203 44.2168C65.3203 45.2585 64.8255 46.0951 63.8359 46.7266C62.9505 47.293 61.9967 47.5762 60.9746 47.5762C59.2624 47.5762 57.8236 47.0781 56.6582 46.082V46.4141C56.6582 46.5182 56.6647 46.6191 56.6777 46.7168V46.7559C56.6777 46.8861 56.6322 47.0033 56.541 47.1074C56.4564 47.2116 56.3424 47.2637 56.1992 47.2637C56.0625 47.2637 55.9388 47.2181 55.8281 47.127C55.724 47.0423 55.6654 46.9349 55.6523 46.8047C55.6393 46.6745 55.6328 46.5443 55.6328 46.4141V46.0039C55.6328 45.4831 55.6491 45.0241 55.6816 44.627C55.7142 44.2233 55.7337 43.9857 55.7402 43.9141C55.7533 43.8424 55.8053 43.7643 55.8965 43.6797C55.9941 43.5885 56.1146 43.543 56.2578 43.543C56.4076 43.543 56.528 43.5951 56.6191 43.6992C56.7103 43.8034 56.7559 43.9173 56.7559 44.041V44.0996C56.7363 44.2754 56.7168 44.4837 56.6973 44.7246C57.8301 45.9355 59.2559 46.541 60.9746 46.541C61.7428 46.541 62.3646 46.4141 62.8398 46.1602C63.1589 45.9909 63.3184 45.776 63.3184 45.5156C63.3184 44.9688 62.4427 44.5684 60.6914 44.3145C60.5156 44.2884 60.265 44.2591 59.9395 44.2266C59.6204 44.1875 59.1875 44.0898 58.6406 43.9336C58.1003 43.7708 57.612 43.5495 57.1758 43.2695C56.2057 42.6445 55.7207 41.8145 55.7207 40.7793C55.7207 39.679 56.1471 38.7741 57 38.0645C57.7812 37.4069 58.7188 37.0781 59.8125 37.0781C61.2253 37.0781 62.4264 37.4199 63.416 38.1035C63.6634 37.4915 63.875 37.1432 64.0508 37.0586C64.1354 37.0195 64.2331 37 64.3438 37C64.4609 37 64.5684 37.0521 64.666 37.1562C64.7637 37.2539 64.8125 37.3613 64.8125 37.4785C64.8125 37.5957 64.7376 37.7812 64.5879 38.0352C64.1582 38.7708 63.888 39.5846 63.7773 40.4766C63.7578 40.6003 63.6992 40.7044 63.6016 40.7891C63.5039 40.8737 63.3867 40.916 63.25 40.916C63.1133 40.916 62.9961 40.8639 62.8984 40.7598C62.8008 40.6491 62.752 40.5286 62.752 40.3984V40.3203C62.8236 39.9167 62.918 39.5098 63.0352 39.0996Z" fill="#652400"/>
</svg>
